<svg width="200" height="120" viewBox="0 0 200 120" fill="none" xmlns="http://www.w3.org/2000/svg">
<path fill-rule="evenodd" clip-rule="evenodd" d="M82.4986 24.222L82.0626 2.20603L87.2931 2.10246L87.7291 24.1184L82.4986 24.222Z" fill="#191919"/>
<path fill-rule="evenodd" clip-rule="evenodd" d="M32.5765 19.3043L32.4193 17.3549C32.2241 14.9335 29.4154 13.6998 27.5001 15.1943L1.19193 35.7226C-1.46886 37.7989 0.710936 42.0198 3.94423 41.0522L21.6509 35.7531L25.5263 29.1325L13.5472 32.7175L27.5299 21.8068L27.8065 25.2372L30.7154 20.2679C31.0992 19.6122 31.8252 19.2396 32.5765 19.3043Z" fill="#191919"/>
<path fill-rule="evenodd" clip-rule="evenodd" d="M43.4897 15.8878L83.274 5.36631C83.5685 5.31846 84.0893 5.25659 84.6908 5.23732C85.3727 5.21547 86.021 5.25339 86.5082 5.36165L86.6696 5.39752L154.32 11.6685L121.353 26.06L43.4897 15.8878ZM159.163 15.2624L124.35 30.46V111.133L155.924 82.5485C156.006 82.4743 156.057 82.3716 156.066 82.2613L158.152 57.0768L163.016 61.7305L161.279 82.6932C161.161 84.1267 160.501 85.4614 159.435 86.4268L122.47 119.892L36.7883 99.6044C34.3661 99.0309 32.6017 96.944 32.4388 94.4602L30.1459 59.4938L35.4625 60.62L37.6591 94.1179C37.6716 94.309 37.8074 94.4695 37.9937 94.5136L119.119 113.722V31.044L116.203 30.6631C116.126 30.6428 116.046 30.6269 115.964 30.6158L32.6722 19.3149C31.8874 19.2085 31.1155 19.5843 30.7154 20.2679L27.8902 25.0942L27.2139 14.7808L82.1468 0.253046L82.2481 0.234626C83.1609 0.0686612 85.4435 -0.189214 87.4671 0.217508L167.497 7.63601L166.96 14.1247L166.032 13.2255C165.955 13.1503 165.839 13.0445 165.681 12.9991C165.263 12.8794 164.409 12.9095 163.062 13.508L159.163 15.2624Z" fill="#191919"/>
<path fill-rule="evenodd" clip-rule="evenodd" d="M162.088 7.39323C163.653 6.69782 165.126 6.42922 166.323 6.76549C167.094 6.98181 167.58 7.46195 167.702 7.58239L167.714 7.59383L198.692 37.9478C200.541 39.76 200.413 42.7753 198.416 44.4237L168.627 69.0145C166.923 70.4214 164.435 70.3305 162.838 68.8029L124.131 31.7784L103.77 76.934C102.928 78.8026 100.897 79.8319 98.8919 79.4069L8.02409 60.1445C5.1171 59.5283 3.665 56.2481 5.16316 53.6818L26.9083 16.4331C27.7875 14.9271 29.4797 14.0899 31.2103 14.3047L120.799 25.4246C121.591 25.5229 122.295 25.8218 122.877 26.2587C123.171 25.5846 123.697 24.9197 124.614 24.5008L162.076 7.39856L162.088 7.39323ZM164.224 12.1689C164.22 12.1705 164.217 12.1722 164.213 12.1738L128.33 28.5554L165.894 64.4867L194.338 41.0062L164.712 11.9768C164.577 12.0225 164.414 12.0847 164.224 12.1689ZM31.1364 19.5672L10.2896 55.277L99.2898 74.1434L118.982 30.4707L31.1364 19.5672Z" fill="#191919"/>
</svg>
