<svg width="145" height="166" viewBox="0 0 145 166" fill="none" xmlns="http://www.w3.org/2000/svg">
<path d="M90.6908 68.4295C114.045 52.5962 104.724 31.2139 96.9363 22.2099C96.7764 22.0249 96.6908 21.7953 96.6908 21.5508V10.9295C96.6908 5.05936 92.8621 6.6871 90.8234 8.32107C90.7345 8.39236 90.6611 8.47958 90.603 8.57763L83.473 20.6095C83.1047 21.2311 82.1329 21.319 81.4666 21.0395C78.1293 19.6399 70.1737 20.7682 65.5142 21.7499C65.0363 21.8506 64.5561 21.5993 64.368 21.1486C62.7091 17.1734 59.3071 9.54075 56.6908 5.42947C53.9548 1.13005 51.3143 3.48243 50.262 5.30268C50.2135 5.38661 50.1806 5.47764 50.1605 5.57248L46.74 21.6975C46.7076 21.85 46.6385 21.9942 46.5424 22.117C37.2148 34.0287 42.6344 51.389 46.6069 58.7746C46.6636 58.88 46.7334 58.9665 46.8242 59.0445C55.5706 66.5552 76.3642 78.7765 90.6908 68.4295Z" stroke="#191919" stroke-width="5"/>
<path d="M77.6908 40.4295C80.1908 37.2628 85.1908 33.4295 85.1908 43.4295" stroke="#191919" stroke-width="3" stroke-linecap="round"/>
<path d="M101.191 60.4295C103.409 55.8458 109.483 48.2976 117.529 50.5626C118.493 50.834 119.604 49.7379 119.191 48.825C117.566 45.2267 115.892 40.6972 115.96 37.9689C115.982 37.1052 115.341 35.698 114.505 35.4767C110.11 34.312 104.946 31.3761 108.691 25.9295C114.191 17.9295 118.191 17.9295 123.691 24.4295C129.191 30.9295 146.691 36.4295 140.191 53.9295C133.751 71.2676 137.127 76.3359 111.419 85.1807C110.998 85.3255 110.707 85.7348 110.7 86.1799C110.571 94.2212 103.646 116.151 93.1908 128.929" stroke="#191919" stroke-width="5" stroke-linecap="round"/>
<path d="M81.6908 47.4295C80.6908 51.9295 76.4908 58.4295 67.6908 48.4295" stroke="#191919" stroke-width="3" stroke-linecap="round"/>
<path d="M44.6908 55.9295C40.8574 52.5961 30.1908 47.6295 18.1908 54.4295C24.1174 52.0268 34.3545 45.0981 29.8162 36.0403C29.5263 35.4617 29.7803 34.7325 30.3846 34.5006C33.9671 33.1257 38.9799 30.4342 37.1908 27.9295C34.6908 24.4295 36.1908 14.9295 26.1908 22.9295C19.6203 28.1859 17.9965 32.0032 17.9953 33.9383C17.995 34.4985 17.7785 35.124 17.2799 35.3793C10.4881 38.8578 -0.397787 47.1347 4.19078 55.9295C6.65657 59.8747 3.28549 84.7354 38.2143 84.4558C38.9139 84.4502 39.4516 85.1371 39.2891 85.8176C38.2643 90.1089 38.2591 97.6417 44.6908 101.929C48.2908 103.929 46.1908 108.763 44.6908 110.929" stroke="#191919" stroke-width="5" stroke-linecap="round"/>
<path d="M73.6908 89.9295C68.8575 93.0961 58.0908 98.9295 53.6908 96.9295" stroke="#191919" stroke-width="3" stroke-linecap="round"/>
<path d="M83.1908 91.9295C82.8575 97.7628 84.3908 108.929 93.1908 106.929" stroke="#191919" stroke-width="3" stroke-linecap="round"/>
<path d="M76.1908 100.429C73.8574 105.763 69.8908 117.129 72.6908 119.929" stroke="#191919" stroke-width="2" stroke-linecap="round"/>
<path d="M68.1908 105.429C71.1908 105.429 77.7908 106.229 80.1908 109.429" stroke="#191919" stroke-width="3" stroke-linecap="round"/>
<path d="M67.1908 114.429C69.1908 113.929 73.9908 113.429 77.1908 115.429" stroke="#191919" stroke-width="3" stroke-linecap="round"/>
<path d="M71.1908 42.4295C71.3575 37.9295 70.4908 30.6295 65.6908 37.4295L63.6908 40.9295" stroke="#191919" stroke-width="3" stroke-linecap="round"/>
<path d="M43.6908 112.429C40.731 119.994 42.3462 136.286 71.9702 141.715C72.5912 141.828 72.9804 142.48 72.7706 143.075C70.6939 148.969 68.3681 159.098 73.0451 160.393C73.1392 160.419 73.2313 160.453 73.3164 160.501C78.0387 163.149 88.1228 166.048 91.6908 156.929C96.1908 145.429 101.191 142.429 94.1908 131.429C88.5908 122.629 80.1908 121.429 76.6908 121.929" stroke="#191919" stroke-width="5" stroke-linecap="round"/>
<path d="M49.1908 131.929C42.8575 136.596 31.9909 146.629 37.1909 151.429C43.6909 157.429 52.6908 152.429 70.6908 141.929" stroke="#191919" stroke-width="5" stroke-linecap="round"/>
</svg>
