<svg width="182" height="173" viewBox="0 0 182 173" fill="none" xmlns="http://www.w3.org/2000/svg">
<path fill-rule="evenodd" clip-rule="evenodd" d="M75.0737 85.7087L74.677 65.6742L79.4367 65.5799L79.8334 85.6144L75.0737 85.7087Z" fill="#191919"/>
<path fill-rule="evenodd" clip-rule="evenodd" d="M29.6447 81.2336L29.5016 79.4596C29.3239 77.2561 26.768 76.1335 25.0251 77.4935L1.08466 96.1743C-1.33667 98.0637 0.646952 101.905 3.58925 101.024L19.7023 96.202L23.229 90.1773L12.3279 93.4397L25.0522 83.5109L25.3039 86.6326L27.951 82.1105C28.3003 81.5138 28.9609 81.1747 29.6447 81.2336Z" fill="#191919"/>
<path fill-rule="evenodd" clip-rule="evenodd" d="M39.5757 78.1246L75.7794 68.55C76.0474 68.5065 76.5213 68.4502 77.0687 68.4326C77.6892 68.4128 78.2792 68.4473 78.7225 68.5458L78.8694 68.5784L140.431 74.285L110.432 87.3813L39.5757 78.1246ZM144.839 77.5555L113.159 91.3853V164.798L141.891 138.786C141.965 138.718 142.011 138.625 142.02 138.524L143.918 115.607L148.344 119.841L146.764 138.918C146.656 140.222 146.056 141.437 145.086 142.315L111.448 172.768L33.4774 154.307C31.2732 153.785 29.6676 151.886 29.5194 149.626L27.4328 117.806L32.2709 118.831L34.2698 149.314C34.2812 149.488 34.4047 149.634 34.5743 149.674L108.398 167.154V91.9167L105.745 91.5701C105.674 91.5516 105.602 91.5372 105.527 91.5271L29.7318 81.2433C29.0176 81.1464 28.3152 81.4884 27.9511 82.1105L25.3801 86.5024L24.7647 77.1172L74.7537 63.897L74.8458 63.8802C75.6765 63.7292 77.7536 63.4945 79.5951 63.8646L152.422 70.6155L151.933 76.5201L151.089 75.7019C151.019 75.6334 150.913 75.5372 150.769 75.4959C150.389 75.3869 149.612 75.4143 148.386 75.9589L144.839 77.5555Z" fill="#191919"/>
<path fill-rule="evenodd" clip-rule="evenodd" d="M147.5 70.3945C148.924 69.7617 150.265 69.5173 151.354 69.8233C152.055 70.0201 152.498 70.4571 152.609 70.5667L152.62 70.5771L180.809 98.1992C182.492 99.8483 182.375 102.592 180.558 104.092L153.45 126.47C151.9 127.75 149.636 127.667 148.183 126.277L112.959 92.585L94.4309 133.677C93.6642 135.377 91.8164 136.314 89.9916 135.927L7.3019 118.398C4.65654 117.837 3.33513 114.852 4.69846 112.517L24.4866 78.6208C25.2866 77.2503 26.8265 76.4885 28.4014 76.684L109.927 86.8031C110.648 86.8925 111.289 87.1645 111.818 87.5621C112.085 86.9487 112.564 86.3436 113.399 85.9625L147.489 70.3994L147.5 70.3945ZM149.444 74.7404C149.441 74.7419 149.437 74.7434 149.434 74.7449L116.78 89.6522L150.964 122.35L176.848 100.982L149.888 74.5656C149.765 74.6072 149.617 74.6637 149.444 74.7404ZM28.3342 81.4728L9.36353 113.969L90.3537 131.137L108.273 91.395L28.3342 81.4728Z" fill="#191919"/>
<path d="M33.8329 76.7921C14.9518 76.1852 70.3302 8.72414 101.838 30.2302C101.926 30.2905 102.007 30.3671 102.071 30.4525L138.747 79.1486C138.909 79.3635 138.98 79.6403 138.923 79.9033C136.842 89.5982 115.222 88.6755 106.602 86.782L40.0146 77.9664C39.9243 77.9545 39.8329 77.9554 39.7425 77.966C37.7476 78.2002 35.4211 77.4108 34.3053 76.8975C34.1648 76.8329 33.9875 76.797 33.8329 76.7921Z" fill="white" stroke="#191919" stroke-width="6" stroke-linecap="round"/>
<path d="M148.769 75.3863C174.524 57.8516 164.208 34.1652 155.623 24.2218C155.464 24.0372 155.379 23.8096 155.379 23.5658V11.7726C155.379 5.26475 151.143 7.08669 148.901 8.89817C148.812 8.96975 148.739 9.05689 148.681 9.15498L140.739 22.6152C140.371 23.2389 139.403 23.3191 138.745 23.0181C135.135 21.3687 126.136 22.6571 120.95 23.7611C120.471 23.8629 119.991 23.6108 119.803 23.1588C117.988 18.7842 114.212 10.2641 111.312 5.68778C108.291 0.920311 105.376 3.54571 104.222 5.56137C104.174 5.64524 104.141 5.73581 104.121 5.83036L100.344 23.7107C100.312 23.8629 100.243 24.0068 100.148 24.1294C89.8427 37.3172 95.8323 56.5558 100.212 64.7215C100.268 64.8269 100.338 64.9132 100.428 64.9913C110.056 73.2996 132.978 86.839 148.769 75.3863Z" fill="white" stroke="#191919" stroke-width="6"/>
<path d="M134.388 44.3217C137.204 40.9245 142.835 36.8121 142.835 47.5401" stroke="#191919" stroke-width="4" stroke-linecap="round"/>
<path d="M138.996 52.1477C137.899 57.109 133.291 64.2754 123.637 53.2502" stroke="#191919" stroke-width="4" stroke-linecap="round"/>
<path d="M128.745 45.1188C127.153 40.022 123.365 32.1773 120.95 41.5727L120.206 46.2334" stroke="#191919" stroke-width="4" stroke-linecap="round"/>
</svg>
