<svg width="260" height="247" viewBox="0 0 260 247" fill="none" xmlns="http://www.w3.org/2000/svg">
<circle cx="127" cy="126" r="63" fill="white" stroke="black" stroke-width="8"/>
<path d="M101.382 116.205C102.753 106.416 107.605 92.0932 116.042 113.108" stroke="black" stroke-width="8" stroke-linecap="round"/>
<path d="M132.122 120.074C136.89 111.416 146.525 99.7609 146.923 122.403" stroke="black" stroke-width="8" stroke-linecap="round"/>
<path d="M137 133.5L114.5 129C113 135.833 112.7 149.2 123.5 148C134.3 146.8 137 137.833 137 133.5Z" stroke="black" stroke-width="8"/>
<path d="M12 181C14.2313 176.527 20.6184 168.923 28.3163 174.29C36.0143 179.658 47.9796 170.333 53 165" stroke="black" stroke-width="8" stroke-linecap="round"/>
<path d="M178 193.203C182.851 193.907 191.992 197.611 189.747 206.802C187.502 215.993 200.135 224.532 206.732 227.653" stroke="black" stroke-width="8" stroke-linecap="round"/>
<path d="M101.394 204C102.882 208.866 103.363 219.463 93.3793 222.928C83.3957 226.393 81.59 234.583 81.5 242.5" stroke="black" stroke-width="8" stroke-linecap="round"/>
<path d="M64 13.8782C68.8974 15.2584 78.0705 20.5865 75.5843 30.8577C73.0982 41.129 79.0094 47.0776 85.6198 51.4362" stroke="black" stroke-width="8" stroke-linecap="round"/>
<path d="M212 145.866C215.339 149.706 224.073 155.727 232.3 149.094C240.527 142.461 248.43 145.267 255.193 149.385" stroke="black" stroke-width="8" stroke-linecap="round"/>
<path d="M4.38226 88.214C7.22142 92.4363 15.1455 99.4893 24.1284 93.9228C33.1113 88.3562 40.6073 92.1165 46.8107 97.0371" stroke="black" stroke-width="8" stroke-linecap="round"/>
<path d="M164.242 4.04636C159.322 5.34479 150.062 10.5194 152.377 20.8307C154.691 31.1419 148.682 36.9913 142 41.2393" stroke="black" stroke-width="8" stroke-linecap="round"/>
<path d="M194.873 71.5268C196.608 67.0887 201.861 59.4142 208.984 64.2208C216.107 69.0273 226.215 59.4097 230.379 54" stroke="black" stroke-width="8" stroke-linecap="round"/>
</svg>
